<?xml version="1.0" encoding="UTF-8"?>
<svg width="200" height="64" viewBox="0 0 200 64" xmlns="http://www.w3.org/2000/svg">
  <!-- 背景 -->
  <rect width="200" height="64" rx="8" fill="#1E1E2E" />
  
  <!-- 游戏控制器图标 -->
  <g transform="translate(15, 16)" fill="#FF5E5B">
    <path d="M32,0C14.327,0,0,14.327,0,32s14.327,32,32,32s32-14.327,32-32S49.673,0,32,0z M20,36h-4v4h-4v-4H8v-4h4v-4h4v4h4V36z
     M40,36c-2.2,0-4-1.8-4-4s1.8-4,4-4s4,1.8,4,4S42.2,36,40,36z M48,28c-2.2,0-4-1.8-4-4s1.8-4,4-4s4,1.8,4,4S50.2,28,48,28z"/>
  </g>
  
  <!-- 文字 -->
  <text x="75" y="30" font-family="Arial, sans-serif" font-weight="bold" font-size="18" fill="#FFFFFF">SURVIVOR</text>
  <text x="75" y="48" font-family="Arial, sans-serif" font-weight="bold" font-size="18" fill="#FF5E5B">GAME ONLINE</text>
</svg> 