<?xml version="1.0" encoding="UTF-8"?>
<svg width="800" height="450" viewBox="0 0 800 450" xmlns="http://www.w3.org/2000/svg">
  <!-- 背景渐变 -->
  <defs>
    <linearGradient id="bgGradient" x1="0%" y1="0%" x2="100%" y2="100%">
      <stop offset="0%" stop-color="#1A237E"/>
      <stop offset="100%" stop-color="#4A148C"/>
    </linearGradient>
    <filter id="glow" x="-20%" y="-20%" width="140%" height="140%">
      <feGaussianBlur stdDeviation="5" result="blur"/>
      <feComposite in="SourceGraphic" in2="blur" operator="over"/>
    </filter>
  </defs>
  
  <!-- 背景 -->
  <rect width="800" height="450" fill="url(#bgGradient)"/>
  
  <!-- 战术网格 -->
  <g opacity="0.15">
    <path d="M0,0 L800,450" stroke="#FFFFFF" stroke-width="1"/>
    <path d="M0,50 L800,500" stroke="#FFFFFF" stroke-width="1"/>
    <path d="M0,100 L800,550" stroke="#FFFFFF" stroke-width="1"/>
    <path d="M0,150 L800,600" stroke="#FFFFFF" stroke-width="1"/>
    <path d="M0,200 L800,650" stroke="#FFFFFF" stroke-width="1"/>
    <path d="M0,250 L800,700" stroke="#FFFFFF" stroke-width="1"/>
    <path d="M0,300 L800,750" stroke="#FFFFFF" stroke-width="1"/>
    <path d="M0,350 L800,800" stroke="#FFFFFF" stroke-width="1"/>
    <path d="M0,400 L800,850" stroke="#FFFFFF" stroke-width="1"/>
    
    <path d="M800,0 L0,450" stroke="#FFFFFF" stroke-width="1"/>
    <path d="M750,0 L-50,450" stroke="#FFFFFF" stroke-width="1"/>
    <path d="M700,0 L-100,450" stroke="#FFFFFF" stroke-width="1"/>
    <path d="M650,0 L-150,450" stroke="#FFFFFF" stroke-width="1"/>
    <path d="M600,0 L-200,450" stroke="#FFFFFF" stroke-width="1"/>
    <path d="M550,0 L-250,450" stroke="#FFFFFF" stroke-width="1"/>
    <path d="M500,0 L-300,450" stroke="#FFFFFF" stroke-width="1"/>
    <path d="M450,0 L-350,450" stroke="#FFFFFF" stroke-width="1"/>
  </g>
  
  <!-- 主战术图 -->
  <g transform="translate(400, 225)">
    <!-- 战略地图背景 -->
    <circle cx="0" cy="0" r="150" fill="rgba(0,0,0,0.3)" stroke="#D50000" stroke-width="2" stroke-dasharray="5,3"/>
    
    <!-- 战术位置标记 -->
    <g filter="url(#glow)">
      <!-- 战术点A -->
      <circle cx="-80" cy="-80" r="15" fill="#D50000"/>
      <text x="-80" y="-80" font-family="Arial" font-size="14" font-weight="bold" fill="white" text-anchor="middle" dy="5">A</text>
      
      <!-- 战术点B -->
      <circle cx="80" cy="-80" r="15" fill="#D50000"/>
      <text x="80" y="-80" font-family="Arial" font-size="14" font-weight="bold" fill="white" text-anchor="middle" dy="5">B</text>
      
      <!-- 战术点C -->
      <circle cx="0" cy="0" r="20" fill="#D50000"/>
      <text x="0" y="0" font-family="Arial" font-size="14" font-weight="bold" fill="white" text-anchor="middle" dy="5">C</text>
      
      <!-- 战术点D -->
      <circle cx="-80" cy="80" r="15" fill="#D50000"/>
      <text x="-80" y="80" font-family="Arial" font-size="14" font-weight="bold" fill="white" text-anchor="middle" dy="5">D</text>
      
      <!-- 战术点E -->
      <circle cx="80" cy="80" r="15" fill="#D50000"/>
      <text x="80" y="80" font-family="Arial" font-size="14" font-weight="bold" fill="white" text-anchor="middle" dy="5">E</text>
    </g>
    
    <!-- 战术路线 -->
    <path d="M-80,-80 L0,0 L80,-80 L80,80 L0,0 L-80,80 Z" fill="none" stroke="#FFFF00" stroke-width="3" stroke-dasharray="10,5" opacity="0.7"/>
    
    <!-- 战术进攻箭头 -->
    <g>
      <!-- 主进攻方向 -->
      <path d="M-120,-120 L-20,-20" stroke="#00E676" stroke-width="4" opacity="0.8"/>
      <path d="M-20,-20 L-30,-30 L-35,-15 Z" fill="#00E676" opacity="0.8"/>
      
      <!-- 侧翼进攻方向 -->
      <path d="M120,-120 L20,-20" stroke="#00E676" stroke-width="4" opacity="0.8"/>
      <path d="M20,-20 L30,-30 L15,-35 Z" fill="#00E676" opacity="0.8"/>
      
      <!-- 迂回进攻方向 -->
      <path d="M120,120 L20,20" stroke="#00E676" stroke-width="4" opacity="0.8"/>
      <path d="M20,20 L30,30 L15,35 Z" fill="#00E676" opacity="0.8"/>
      
      <!-- 支援进攻方向 -->
      <path d="M-120,120 L-20,20" stroke="#00E676" stroke-width="4" opacity="0.8"/>
      <path d="M-20,20 L-30,30 L-35,15 Z" fill="#00E676" opacity="0.8"/>
    </g>
    
    <!-- 防御阵地标记 -->
    <g>
      <path d="M-40,-40 L40,-40 L40,40 L-40,40 Z" fill="none" stroke="#2979FF" stroke-width="3" stroke-dasharray="5,3" opacity="0.8"/>
      <path d="M-30,-30 L30,-30 L30,30 L-30,30 Z" fill="none" stroke="#2979FF" stroke-width="2" opacity="0.6"/>
    </g>
  </g>
  
  <!-- 图例 -->
  <g transform="translate(700, 55)">
    <rect x="-70" y="0" width="140" height="90" rx="5" fill="rgba(0,0,0,0.5)" stroke="#FFFFFF" stroke-width="1"/>
    
    <g transform="translate(0, 20)">
      <circle cx="-55" cy="0" r="5" fill="#D50000"/>
      <text x="-40" y="5" font-family="Arial" font-size="12" fill="white">战术点</text>
    </g>
    
    <g transform="translate(0, 40)">
      <line x1="-60" y1="0" x2="-50" y2="0" stroke="#00E676" stroke-width="2"/>
      <text x="-40" y="5" font-family="Arial" font-size="12" fill="white">进攻路线</text>
    </g>
    
    <g transform="translate(0, 60)">
      <line x1="-60" y1="0" x2="-50" y2="0" stroke="#2979FF" stroke-width="2" stroke-dasharray="3,2"/>
      <text x="-40" y="5" font-family="Arial" font-size="12" fill="white">防御阵地</text>
    </g>
  </g>
  
  <!-- 文字 -->
  <g fill="#FFFFFF" font-family="Arial, sans-serif" font-weight="bold">
    <text x="400" y="70" font-size="40" text-anchor="middle">战斗策略精通</text>
    <text x="400" y="115" font-size="24" text-anchor="middle" fill="#FFFF00">BATTLE TACTICS MASTERY</text>
    <text x="400" y="380" font-size="18" text-anchor="middle" opacity="0.8">布局、决策与胜利：掌控战场的艺术</text>
  </g>
</svg> 