<?xml version="1.0" encoding="UTF-8"?>
<svg width="800" height="450" viewBox="0 0 800 450" xmlns="http://www.w3.org/2000/svg">
  <!-- 背景渐变 -->
  <defs>
    <linearGradient id="bgGradient" x1="0%" y1="0%" x2="100%" y2="100%">
      <stop offset="0%" stop-color="#4A148C"/>
      <stop offset="100%" stop-color="#0D47A1"/>
    </linearGradient>
    <filter id="glow" x="-20%" y="-20%" width="140%" height="140%">
      <feGaussianBlur stdDeviation="5" result="blur"/>
      <feComposite in="SourceGraphic" in2="blur" operator="over"/>
    </filter>
  </defs>
  
  <!-- 背景 -->
  <rect width="800" height="450" fill="url(#bgGradient)"/>
  
  <!-- 网格背景 -->
  <g opacity="0.15">
    <path d="M0,0 L800,450 M800,0 L0,450" stroke="#FFFFFF" stroke-width="1"/>
    
    <!-- 水平线 -->
    <path d="M0,75 L800,75 M0,150 L800,150 M0,225 L800,225 M0,300 L800,300 M0,375 L800,375" stroke="#FFFFFF" stroke-width="1"/>
    
    <!-- 垂直线 -->
    <path d="M100,0 L100,450 M200,0 L200,450 M300,0 L300,450 M400,0 L400,450 M500,0 L500,450 M600,0 L600,450 M700,0 L700,450" stroke="#FFFFFF" stroke-width="1"/>
  </g>
  
  <!-- 中央天平 -->
  <g transform="translate(400, 225)">
    <!-- 天平支架 -->
    <rect x="-10" y="30" width="20" height="80" fill="#E0E0E0" rx="3"/>
    <rect x="-60" y="110" width="120" height="15" fill="#E0E0E0" rx="5"/>
    
    <!-- 天平横杆 -->
    <g id="balance-beam">
      <rect x="-150" y="-5" width="300" height="10" fill="#9C27B0" rx="5"/>
      <!-- 中点标记 -->
      <circle cx="0" cy="0" r="15" fill="#E0E0E0"/>
      <circle cx="0" cy="0" r="12" fill="#673AB7"/>
      <circle cx="0" cy="0" r="3" fill="#FFFFFF"/>
    </g>
    
    <!-- 天平左盘 -->
    <g transform="translate(-120, 0)">
      <path d="M-40,0 C-40,-20 40,-20 40,0 L40,30 C40,50 -40,50 -40,30 Z" fill="#2196F3" opacity="0.9"/>
      <circle cx="0" cy="15" r="20" fill="#BBDEFB" opacity="0.8"/>
      
      <!-- 左侧元素：伤害 -->
      <g transform="translate(0, 10)">
        <path d="M-10,-15 L0,-5 L10,-15 L15,0 L10,15 L0,5 L-10,15 L-15,0 Z" fill="#F44336" filter="url(#glow)"/>
        <text x="0" y="25" font-family="Arial" font-size="12" font-weight="bold" fill="white" text-anchor="middle">伤害</text>
      </g>
    </g>
    
    <!-- 天平右盘 -->
    <g transform="translate(120, 0)">
      <path d="M-40,0 C-40,-20 40,-20 40,0 L40,30 C40,50 -40,50 -40,30 Z" fill="#4CAF50" opacity="0.9"/>
      <circle cx="0" cy="15" r="20" fill="#C8E6C9" opacity="0.8"/>
      
      <!-- 右侧元素：防御 -->
      <g transform="translate(0, 10)">
        <path d="M0,-15 L15,0 L0,15 L-15,0 Z" fill="#FFEB3B" filter="url(#glow)"/>
        <text x="0" y="25" font-family="Arial" font-size="12" font-weight="bold" fill="white" text-anchor="middle">防御</text>
      </g>
    </g>
    
    <!-- 连接链条 -->
    <path d="M-120,-5 L-120,-20 M-120,-25 L-120,-35 M-120,-40 L-120,-50" stroke="#E0E0E0" stroke-width="3" stroke-linecap="round"/>
    <path d="M120,-5 L120,-20 M120,-25 L120,-35 M120,-40 L120,-50" stroke="#E0E0E0" stroke-width="3" stroke-linecap="round"/>
  </g>
  
  <!-- 元素图标 -->
  <g>
    <!-- 速度 -->
    <g transform="translate(200, 125)">
      <circle cx="0" cy="0" r="40" fill="rgba(0,0,0,0.3)" stroke="#64B5F6" stroke-width="2"/>
      <path d="M-20,-20 L20,20 M-15,-15 L25,-15 L25,25 L-15,25 Z" stroke="#64B5F6" stroke-width="3" fill="none"/>
      <path d="M-5,-10 L15,10 L20,-5" stroke="#FFFFFF" stroke-width="2" fill="none"/>
      <text x="0" y="50" font-family="Arial" font-size="14" font-weight="bold" fill="white" text-anchor="middle">速度</text>
    </g>
    
    <!-- 生命值 -->
    <g transform="translate(600, 125)">
      <circle cx="0" cy="0" r="40" fill="rgba(0,0,0,0.3)" stroke="#F44336" stroke-width="2"/>
      <path d="M0,-20 C10,-30 20,-20 20,-10 C20,0 0,15 0,15 C0,15 -20,0 -20,-10 C-20,-20 -10,-30 0,-20" fill="#F44336" opacity="0.7"/>
      <text x="0" y="50" font-family="Arial" font-size="14" font-weight="bold" fill="white" text-anchor="middle">生命值</text>
    </g>
    
    <!-- 射程 -->
    <g transform="translate(200, 325)">
      <circle cx="0" cy="0" r="40" fill="rgba(0,0,0,0.3)" stroke="#FF9800" stroke-width="2"/>
      <path d="M-20,0 L20,0 M10,-10 L20,0 L10,10" stroke="#FF9800" stroke-width="3" fill="none"/>
      <path d="M-10,-10 L-20,0 L-10,10" stroke="#FF9800" stroke-width="3" fill="none"/>
      <text x="0" y="50" font-family="Arial" font-size="14" font-weight="bold" fill="white" text-anchor="middle">射程</text>
    </g>
    
    <!-- 技能冷却 -->
    <g transform="translate(600, 325)">
      <circle cx="0" cy="0" r="40" fill="rgba(0,0,0,0.3)" stroke="#4CAF50" stroke-width="2"/>
      <circle cx="0" cy="0" r="25" fill="none" stroke="#4CAF50" stroke-width="3"/>
      <path d="M0,0 L0,-20 M0,0 L15,15" stroke="#4CAF50" stroke-width="3"/>
      <text x="0" y="50" font-family="Arial" font-size="14" font-weight="bold" fill="white" text-anchor="middle">冷却</text>
    </g>
  </g>
  
  <!-- 连接线 -->
  <g stroke-dasharray="5,3" stroke="#FFFFFF" stroke-width="1" opacity="0.6">
    <path d="M200,125 L280,225 M600,125 L520,225 M200,325 L280,225 M600,325 L520,225"/>
  </g>
  
  <!-- 文字 -->
  <g fill="#FFFFFF" font-family="Arial, sans-serif" font-weight="bold">
    <text x="400" y="70" font-size="40" text-anchor="middle">游戏平衡设计</text>
    <text x="400" y="110" font-size="24" text-anchor="middle" fill="#8BC34A">GAME BALANCE DESIGN</text>
    <text x="400" y="400" font-size="18" text-anchor="middle" opacity="0.8">平衡攻防：打造公平竞技的游戏机制</text>
  </g>
</svg> 